<svg
  xmlns="http://www.w3.org/2000/svg"
  version="1.1"
  xmlns:xlink="http://www.w3.org/1999/xlink"
  width="512"
  height="512"
>
  <svg
    version="1.2"
    xmlns="http://www.w3.org/2000/svg"
    viewBox="0 0 500 500"
    width="512"
    height="512"
  >
    <g>
      <path
        fill="#000000"
        d="m250 500c-138.3 0-250-111.8-250-250 0-138.3 111.8-250 250-250 138.3 0 250 111.8 250 250 0 138.3-111.8 250-250 250z"
      ></path>
      <path
        fill="#FFFFFF"
        fill-rule="evenodd"
        d="m92.2 401.9c-0.1-79.6-0.5-159.2 0.1-238.8 0.1-19.5 3.6-39 5.7-58.5 0.3-3 1.2-5.9 2.3-8.7 4.3-11 12.2-12.5 19.1-3.1 5.5 7.5 10.1 15.7 14.3 24 10.7 21.5 27.8 30.9 51.8 29.6 15.9-0.8 31.9-0.7 47.9-0.8 12.5 0 21.5-5.2 27.8-16 7.8-13.5 15.7-27 24.4-40 4.5-6.7 10.3-14.8 19.9-11.9 10.4 3.2 10.5 12.9 10.6 22.3 0.4 77 1.1 153.9 1.4 230.9 0.1 6.2 1.7 10 7.5 12.1 1.5 0.5 2.8 1.7 4.2 2.6 26.7 18.2 47.9 16.5 74.2-10.5 3.7-3.8 6.7-8.2 10.1-12.3 8.6-10.5 22.6-12.7 32.9-5.3 10.5 7.5 13.6 21.4 5.9 32.8-15.3 22.9-35.2 40.6-62.9 50.7-25.3 7.9-48.4 4.9-71.4-6.2-0.9 4.4-1.5 7.9-2.5 11.4-3.2 11.3-9.5 16-20.7 16q-87.3-0.2-174.6-0.2c-18.7 0-22.4-2.6-28-20zm31.3-173.2c8.2 13.2 22.6 15.1 30.8 3.9 5-6.9 5.3-14.3 0.1-21.1-5.3-7.1-12.5-9.6-21.1-6.1-8.8 3.6-11.9 10.3-9.8 23.3zm141.7-23.2c-13.9 8.5-15.1 24.4-2.3 31.8 7.4 4.4 14.8 3.6 21.1-2.2 6.2-5.7 8-13 4.1-20.8-4.5-8.8-11.9-11.9-22.9-8.8z"
      ></path>
    </g>
  </svg>
  <style>
    @media (prefers-color-scheme: light) {
      :root {
        filter: none;
      }
    }
    @media (prefers-color-scheme: dark) {
      :root {
        filter: invert(100%);
      }
    }
  </style>
</svg>
